<?xml version="1.0" encoding="utf-8"?>
<!-- Generator: Adobe Illustrator 16.0.2, SVG Export Plug-In . SVG Version: 6.00 Build 0)  -->
<!DOCTYPE svg PUBLIC "-//W3C//DTD SVG 1.1//EN" "http://www.w3.org/Graphics/SVG/1.1/DTD/svg11.dtd">
<svg version="1.1" id="Layer_1" xmlns="http://www.w3.org/2000/svg" xmlns:xlink="http://www.w3.org/1999/xlink" x="0px" y="0px"
	 width="170.079px" height="170.079px" viewBox="0 0 170.079 170.079" enable-background="new 0 0 170.079 170.079"
	 xml:space="preserve">
<g>
	<rect y="0" fill="#0F192B" width="170.079" height="170.078"/>
	<g>
		<defs>
			<path id="SVGID_1_" d="M168.079,168.079H2V2h166.079V168.079z M170.079,0H0v170.079h170.079V0z"/>
		</defs>
		<clipPath id="SVGID_2_">
			<use xlink:href="#SVGID_1_"  overflow="visible"/>
		</clipPath>
		
			<linearGradient id="SVGID_3_" gradientUnits="userSpaceOnUse" x1="-2.4194" y1="852.0239" x2="-1.4194" y2="852.0239" gradientTransform="matrix(170.0788 0 0 -170.0788 411.375 144996.3281)">
			<stop  offset="0" style="stop-color:#FAE7C6"/>
			<stop  offset="0.0359" style="stop-color:#FAE7C6"/>
			<stop  offset="0.0828" style="stop-color:#ECD8B8"/>
			<stop  offset="0.2469" style="stop-color:#BDA78B"/>
			<stop  offset="0.3282" style="stop-color:#AB947A"/>
			<stop  offset="0.5179" style="stop-color:#887462"/>
			<stop  offset="0.758" style="stop-color:#A89178"/>
			<stop  offset="0.7795" style="stop-color:#AB947A"/>
			<stop  offset="0.8446" style="stop-color:#BBA892"/>
			<stop  offset="0.9818" style="stop-color:#E4DCD0"/>
			<stop  offset="1" style="stop-color:#EAE3D9"/>
		</linearGradient>
		<rect y="0" clip-path="url(#SVGID_2_)" fill="url(#SVGID_3_)" width="170.079" height="170.078"/>
	</g>
	<g>
		<defs>
			<path id="SVGID_4_" d="M59.145,64.345c-1.434,7.827-0.09,17.629-0.09,28.015c-0.002,13.453-7.846,13.244-7.846,13.244
				s2.258,1.707,8.252-1.101c12.492-6.37,8.691-16.608,2.784-28.021c-3.205-6.189-2.582-11.154-1.262-14.933
				c3.911-11.199,16.839-12.812,24.984-4.47c8.396,8.595,5.883,17.084,4.407,23.533c8.676-5.56,10.104-20.295,0.294-28.639
				c-3.416-2.906-7.442-4.205-11.462-4.205C70.061,47.772,60.947,54.501,59.145,64.345"/>
		</defs>
		<clipPath id="SVGID_5_">
			<use xlink:href="#SVGID_4_"  overflow="visible"/>
		</clipPath>
		
			<linearGradient id="SVGID_6_" gradientUnits="userSpaceOnUse" x1="-4.8032" y1="850.1685" x2="-3.8032" y2="850.1685" gradientTransform="matrix(82.2784 62.3406 62.3406 -82.2784 -52546.1133 70314.4297)">
			<stop  offset="0" style="stop-color:#FAE7C6"/>
			<stop  offset="0.0359" style="stop-color:#FAE7C6"/>
			<stop  offset="0.0828" style="stop-color:#ECD8B8"/>
			<stop  offset="0.2469" style="stop-color:#BDA78B"/>
			<stop  offset="0.3282" style="stop-color:#AB947A"/>
			<stop  offset="0.5179" style="stop-color:#887462"/>
			<stop  offset="0.758" style="stop-color:#A89178"/>
			<stop  offset="0.7795" style="stop-color:#AB947A"/>
			<stop  offset="0.8446" style="stop-color:#BBA892"/>
			<stop  offset="0.9818" style="stop-color:#E4DCD0"/>
			<stop  offset="1" style="stop-color:#EAE3D9"/>
		</linearGradient>
		<polygon clip-path="url(#SVGID_5_)" fill="url(#SVGID_6_)" points="69.178,24.054 129.14,69.485 82.51,131.028 22.549,85.596 		
			"/>
	</g>
	<g>
		<defs>
			<path id="SVGID_7_" d="M101.424,51.319c-1.443,11.478,8.263,15.383,8.337,26.123c0.06,8.368-6.111,16.133-15.313,14.976
				c-5.678-0.716-13.589-4.999-15.906-13.328c-2.956-10.628,0.833-16.015,0.833-16.015s-9.766,6.127-7.012,19.439
				c2.404,11.637,13.56,14.239,20.368,13.669c8.053-0.677,16.148-7.133,17.788-14.896c2.075-9.828-6.752-40.003,8.5-42.981
				c-0.031,0-0.064,0-0.097,0C111.454,38.306,102.86,39.891,101.424,51.319"/>
		</defs>
		<clipPath id="SVGID_8_">
			<use xlink:href="#SVGID_7_"  overflow="visible"/>
		</clipPath>
		
			<linearGradient id="SVGID_9_" gradientUnits="userSpaceOnUse" x1="-4.8027" y1="850.0864" x2="-3.8034" y2="850.0864" gradientTransform="matrix(82.2784 62.3406 62.3406 -82.2784 -52529.4883 70292.5234)">
			<stop  offset="0" style="stop-color:#FAE7C6"/>
			<stop  offset="0.0359" style="stop-color:#FAE7C6"/>
			<stop  offset="0.0828" style="stop-color:#ECD8B8"/>
			<stop  offset="0.2469" style="stop-color:#BDA78B"/>
			<stop  offset="0.3282" style="stop-color:#AB947A"/>
			<stop  offset="0.5179" style="stop-color:#887462"/>
			<stop  offset="0.758" style="stop-color:#A89178"/>
			<stop  offset="0.7795" style="stop-color:#AB947A"/>
			<stop  offset="0.8446" style="stop-color:#BBA892"/>
			<stop  offset="0.9818" style="stop-color:#E4DCD0"/>
			<stop  offset="1" style="stop-color:#EAE3D9"/>
		</linearGradient>
		<polygon clip-path="url(#SVGID_8_)" fill="url(#SVGID_9_)" points="87.63,14.523 147.152,59.623 100.999,120.537 41.477,75.438 		
			"/>
	</g>
	<g>
		<defs>
			<path id="SVGID_10_" d="M38.957,116.016h0.969c0.629,0,1.031,0.008,1.207,0.023c0.646,0.07,1.203,0.3,1.672,0.691
				c0.406,0.33,0.72,0.758,0.938,1.284c0.218,0.524,0.328,1.104,0.328,1.733c0,1.137-0.377,2.047-1.128,2.73
				c-0.324,0.299-0.689,0.504-1.102,0.615c-0.41,0.111-0.996,0.167-1.756,0.167h-1.129V116.016z M34.016,115.661v0.264h0.08
				c0.492,0.031,0.892,0.121,1.199,0.271c0.307,0.148,0.56,0.377,0.76,0.685c0.139,0.224,0.236,0.513,0.293,0.87
				c0.059,0.357,0.088,0.865,0.088,1.525v8.488c0,0.792-0.043,1.375-0.127,1.751c-0.086,0.376-0.25,0.688-0.495,0.933
				c-0.207,0.215-0.448,0.375-0.72,0.479c-0.273,0.104-0.633,0.167-1.078,0.189v0.266h7.361v-0.266
				c-0.447-0.022-0.806-0.086-1.078-0.189s-0.513-0.264-0.72-0.479c-0.237-0.244-0.401-0.559-0.489-0.938
				c-0.088-0.381-0.133-0.962-0.133-1.746v-4.134h2.258c0.998,0,1.627-0.013,1.89-0.035c0.819-0.069,1.52-0.272,2.096-0.61
				c1.104-0.652,1.658-1.682,1.658-3.086c0-1.383-0.545-2.488-1.636-3.318c-0.477-0.368-1.002-0.614-1.578-0.736
				c-0.576-0.123-1.471-0.184-2.684-0.184H34.016z"/>
		</defs>
		<clipPath id="SVGID_11_">
			<use xlink:href="#SVGID_10_"  overflow="visible"/>
		</clipPath>
		
			<linearGradient id="SVGID_12_" gradientUnits="userSpaceOnUse" x1="-4.8037" y1="850.1382" x2="-3.8012" y2="850.1382" gradientTransform="matrix(82.2784 62.3406 62.3406 -82.2784 -52579.2383 70358.2266)">
			<stop  offset="0" style="stop-color:#FAE7C6"/>
			<stop  offset="0.0359" style="stop-color:#FAE7C6"/>
			<stop  offset="0.0828" style="stop-color:#ECD8B8"/>
			<stop  offset="0.2469" style="stop-color:#BDA78B"/>
			<stop  offset="0.3282" style="stop-color:#AB947A"/>
			<stop  offset="0.5179" style="stop-color:#887462"/>
			<stop  offset="0.758" style="stop-color:#A89178"/>
			<stop  offset="0.7795" style="stop-color:#AB947A"/>
			<stop  offset="0.8446" style="stop-color:#BBA892"/>
			<stop  offset="0.9818" style="stop-color:#E4DCD0"/>
			<stop  offset="1" style="stop-color:#EAE3D9"/>
		</linearGradient>
		<polygon clip-path="url(#SVGID_11_)" fill="url(#SVGID_12_)" points="38.699,109.479 54.426,121.394 42.174,137.563 
			26.447,125.648 		"/>
	</g>
	<g>
		<defs>
			<path id="SVGID_13_" d="M50.787,122.524c0.493-0.568,1.068-0.852,1.725-0.852c0.392,0,0.758,0.109,1.102,0.328
				c0.345,0.219,0.619,0.517,0.826,0.893c0.229,0.414,0.371,1.006,0.424,1.773H49.91C50.002,123.806,50.295,123.093,50.787,122.524
				 M49.646,122.491c-1.237,0.981-1.855,2.338-1.855,4.064c0,1.268,0.326,2.334,0.979,3.202c0.469,0.622,1.041,1.083,1.717,1.382
				c0.675,0.299,1.486,0.45,2.43,0.45c1.09,0,1.965-0.229,2.621-0.687c0.656-0.455,1.084-1.133,1.284-2.031l-0.242-0.082
				c-0.198,0.592-0.437,1.021-0.712,1.289c-0.244,0.248-0.553,0.439-0.924,0.576c-0.371,0.14-0.764,0.207-1.176,0.207
				c-0.56,0-1.094-0.121-1.602-0.367c-0.51-0.246-0.936-0.584-1.279-1.014c-0.338-0.422-0.604-0.951-0.799-1.59
				c-0.195-0.637-0.293-1.29-0.293-1.958c0-0.168,0.016-0.44,0.047-0.817h6.75c0-0.967-0.281-1.773-0.843-2.418
				c-0.36-0.416-0.801-0.732-1.323-0.951s-1.09-0.327-1.705-0.327C51.569,121.419,50.545,121.776,49.646,122.491"/>
		</defs>
		<clipPath id="SVGID_14_">
			<use xlink:href="#SVGID_13_"  overflow="visible"/>
		</clipPath>
		
			<linearGradient id="SVGID_15_" gradientUnits="userSpaceOnUse" x1="-4.8032" y1="850.1274" x2="-3.8032" y2="850.1274" gradientTransform="matrix(82.2784 62.3406 62.3406 -82.2784 -52575.7383 70353.6016)">
			<stop  offset="0" style="stop-color:#FAE7C6"/>
			<stop  offset="0.0359" style="stop-color:#FAE7C6"/>
			<stop  offset="0.0828" style="stop-color:#ECD8B8"/>
			<stop  offset="0.2469" style="stop-color:#BDA78B"/>
			<stop  offset="0.3282" style="stop-color:#AB947A"/>
			<stop  offset="0.5179" style="stop-color:#887462"/>
			<stop  offset="0.758" style="stop-color:#A89178"/>
			<stop  offset="0.7795" style="stop-color:#AB947A"/>
			<stop  offset="0.8446" style="stop-color:#BBA892"/>
			<stop  offset="0.9818" style="stop-color:#E4DCD0"/>
			<stop  offset="1" style="stop-color:#EAE3D9"/>
		</linearGradient>
		<polygon clip-path="url(#SVGID_14_)" fill="url(#SVGID_15_)" points="51.084,117.073 61.717,125.128 53.527,135.936 
			42.896,127.88 		"/>
	</g>
	<g>
		<defs>
			<path id="SVGID_16_" d="M61.475,122.854v-0.185c0-0.386-0.055-0.804-0.164-1.25l-3.153,0.414v0.241
				c0.347,0.023,0.61,0.082,0.795,0.178c0.185,0.095,0.341,0.25,0.472,0.464c0.131,0.198,0.215,0.457,0.254,0.774
				c0.039,0.316,0.058,0.869,0.058,1.656v2.829c0,0.673-0.017,1.187-0.052,1.542s-0.094,0.621-0.18,0.797
				c-0.121,0.268-0.283,0.457-0.482,0.567c-0.2,0.11-0.53,0.196-0.991,0.257v0.242h5.091v-0.242
				c-0.576-0.107-0.972-0.264-1.186-0.472c-0.178-0.16-0.297-0.362-0.357-0.603c-0.063-0.242-0.093-0.625-0.093-1.146l-0.011-0.851
				v-2.256c0-0.896,0.035-1.539,0.108-1.927s0.224-0.733,0.454-1.041c0.215-0.292,0.508-0.521,0.879-0.69
				c0.372-0.168,0.772-0.252,1.201-0.252c0.398,0,0.762,0.074,1.091,0.225c0.33,0.148,0.583,0.357,0.759,0.626
				c0.16,0.237,0.27,0.552,0.328,0.944c0.057,0.39,0.086,1.004,0.086,1.84v2.438c0,0.667-0.018,1.179-0.052,1.535
				s-0.095,0.624-0.178,0.8c-0.124,0.27-0.285,0.459-0.484,0.569c-0.2,0.112-0.53,0.198-0.991,0.259v0.242h5.092v-0.242
				c-0.576-0.107-0.973-0.264-1.187-0.472c-0.177-0.16-0.296-0.362-0.358-0.604c-0.061-0.24-0.09-0.623-0.09-1.144v-4.878
				c0-0.836-0.297-1.48-0.889-1.934c-0.598-0.459-1.389-0.688-2.372-0.688C63.559,121.419,62.426,121.897,61.475,122.854"/>
		</defs>
		<clipPath id="SVGID_17_">
			<use xlink:href="#SVGID_16_"  overflow="visible"/>
		</clipPath>
		
			<linearGradient id="SVGID_18_" gradientUnits="userSpaceOnUse" x1="-4.8032" y1="850.1401" x2="-3.8032" y2="850.1401" gradientTransform="matrix(82.2784 62.3406 62.3406 -82.2784 -52572.2383 70348.8984)">
			<stop  offset="0" style="stop-color:#FAE7C6"/>
			<stop  offset="0.0359" style="stop-color:#FAE7C6"/>
			<stop  offset="0.0828" style="stop-color:#ECD8B8"/>
			<stop  offset="0.2469" style="stop-color:#BDA78B"/>
			<stop  offset="0.3282" style="stop-color:#AB947A"/>
			<stop  offset="0.5179" style="stop-color:#887462"/>
			<stop  offset="0.758" style="stop-color:#A89178"/>
			<stop  offset="0.7795" style="stop-color:#AB947A"/>
			<stop  offset="0.8446" style="stop-color:#BBA892"/>
			<stop  offset="0.9818" style="stop-color:#E4DCD0"/>
			<stop  offset="1" style="stop-color:#EAE3D9"/>
		</linearGradient>
		<polygon clip-path="url(#SVGID_17_)" fill="url(#SVGID_18_)" points="62.311,115.77 74.563,125.053 65.486,137.031 
			53.234,127.749 		"/>
	</g>
	<g>
		<defs>
			<path id="SVGID_19_" d="M72.862,118.596l-0.116,0.38c-0.139,0.446-0.285,0.81-0.439,1.089c-0.155,0.281-0.36,0.563-0.615,0.846
				c-0.424,0.461-0.885,0.772-1.383,0.934v0.186h1.232v6.979c0,0.668,0.034,1.132,0.104,1.389c0.07,0.258,0.215,0.477,0.438,0.662
				c0.415,0.352,1.075,0.53,1.981,0.53c0.684,0,1.253-0.112,1.711-0.334c0.456-0.224,0.812-0.565,1.065-1.024l-0.174-0.152
				c-0.275,0.377-0.527,0.637-0.757,0.779c-0.229,0.141-0.517,0.213-0.86,0.213c-0.276,0-0.533-0.055-0.77-0.162
				c-0.237-0.107-0.43-0.256-0.574-0.448c-0.275-0.347-0.414-0.923-0.414-1.728v-6.703h2.926v-0.438h-2.926v-2.995H72.862z"/>
		</defs>
		<clipPath id="SVGID_20_">
			<use xlink:href="#SVGID_19_"  overflow="visible"/>
		</clipPath>
		
			<linearGradient id="SVGID_21_" gradientUnits="userSpaceOnUse" x1="-4.8027" y1="850.1323" x2="-3.8027" y2="850.1323" gradientTransform="matrix(82.2784 62.3406 62.3406 -82.2784 -52567.6133 70342.8516)">
			<stop  offset="0" style="stop-color:#FAE7C6"/>
			<stop  offset="0.0359" style="stop-color:#FAE7C6"/>
			<stop  offset="0.0828" style="stop-color:#ECD8B8"/>
			<stop  offset="0.2469" style="stop-color:#BDA78B"/>
			<stop  offset="0.3282" style="stop-color:#AB947A"/>
			<stop  offset="0.5179" style="stop-color:#887462"/>
			<stop  offset="0.758" style="stop-color:#A89178"/>
			<stop  offset="0.7795" style="stop-color:#AB947A"/>
			<stop  offset="0.8446" style="stop-color:#BBA892"/>
			<stop  offset="0.9818" style="stop-color:#E4DCD0"/>
			<stop  offset="1" style="stop-color:#EAE3D9"/>
		</linearGradient>
		<polygon clip-path="url(#SVGID_20_)" fill="url(#SVGID_21_)" points="72.689,115.453 83.094,123.334 74.457,134.733 
			64.055,126.85 		"/>
	</g>
	<g>
		<defs>
			<path id="SVGID_22_" d="M79.27,116.385c-0.461,0.422-0.82,0.93-1.077,1.52c-0.257,0.592-0.386,1.207-0.386,1.844
				c0,1.037,0.33,1.916,0.99,2.638c0.237,0.261,0.551,0.519,0.938,0.771c0.388,0.254,0.946,0.565,1.676,0.935
				c0.83,0.422,1.446,0.771,1.849,1.047c0.403,0.276,0.715,0.565,0.938,0.864c0.216,0.292,0.387,0.641,0.513,1.049
				c0.126,0.407,0.19,0.805,0.19,1.197c0,0.906-0.288,1.654-0.864,2.246s-1.305,0.887-2.188,0.887c-1.268,0-2.319-0.643-3.156-1.932
				c-0.445-0.695-0.829-1.648-1.152-2.859l-0.264-0.012l-0.036,4.757h0.267c0.137-0.368,0.392-0.554,0.76-0.554
				c0.115,0,0.219,0.017,0.311,0.047c0.092,0.031,0.376,0.15,0.852,0.356c0.914,0.392,1.867,0.587,2.857,0.587
				c1.083,0,2.023-0.242,2.821-0.729c0.799-0.487,1.397-1.178,1.798-2.074c0.283-0.645,0.425-1.318,0.425-2.023
				c0-1.06-0.313-1.99-0.941-2.789c-0.554-0.715-1.453-1.369-2.704-1.961l-1.62-0.783c-1.649-0.784-2.474-1.818-2.474-3.102
				c0-0.322,0.06-0.645,0.178-0.968c0.119-0.323,0.281-0.603,0.488-0.842c0.5-0.584,1.178-0.878,2.037-0.878
				c0.59,0,1.11,0.145,1.563,0.433c0.451,0.288,0.866,0.731,1.241,1.331c0.208,0.33,0.386,0.689,0.534,1.077
				c0.15,0.388,0.329,0.946,0.536,1.676h0.265l-0.081-4.573h-0.265c-0.092,0.393-0.272,0.588-0.542,0.588
				c-0.106,0-0.229-0.021-0.367-0.063c-0.14-0.042-0.4-0.14-0.784-0.294c-0.514-0.214-0.926-0.357-1.232-0.432
				c-0.307-0.072-0.641-0.109-1.002-0.109C81.047,115.256,80.083,115.633,79.27,116.385"/>
		</defs>
		<clipPath id="SVGID_23_">
			<use xlink:href="#SVGID_22_"  overflow="visible"/>
		</clipPath>
		
			<linearGradient id="SVGID_24_" gradientUnits="userSpaceOnUse" x1="-4.8047" y1="850.1323" x2="-3.8019" y2="850.1323" gradientTransform="matrix(82.2784 62.3406 62.3406 -82.2784 -52563.6133 70337.5859)">
			<stop  offset="0" style="stop-color:#FAE7C6"/>
			<stop  offset="0.0359" style="stop-color:#FAE7C6"/>
			<stop  offset="0.0828" style="stop-color:#ECD8B8"/>
			<stop  offset="0.2469" style="stop-color:#BDA78B"/>
			<stop  offset="0.3282" style="stop-color:#AB947A"/>
			<stop  offset="0.5179" style="stop-color:#887462"/>
			<stop  offset="0.758" style="stop-color:#A89178"/>
			<stop  offset="0.7795" style="stop-color:#AB947A"/>
			<stop  offset="0.8446" style="stop-color:#BBA892"/>
			<stop  offset="0.9818" style="stop-color:#E4DCD0"/>
			<stop  offset="1" style="stop-color:#EAE3D9"/>
		</linearGradient>
		<polygon clip-path="url(#SVGID_23_)" fill="url(#SVGID_24_)" points="80.921,110.399 95.281,121.28 83.651,136.629 
			69.291,125.749 		"/>
	</g>
	<g>
		<defs>
			<path id="SVGID_25_" d="M91.175,118.596l-0.115,0.38c-0.139,0.446-0.285,0.81-0.44,1.089c-0.155,0.281-0.36,0.563-0.615,0.846
				c-0.423,0.461-0.883,0.772-1.383,0.934v0.186h1.233v6.979c0,0.668,0.034,1.132,0.104,1.389c0.069,0.258,0.215,0.477,0.438,0.662
				c0.415,0.352,1.075,0.53,1.98,0.53c0.685,0,1.254-0.112,1.711-0.334c0.456-0.224,0.813-0.565,1.065-1.024l-0.172-0.152
				c-0.276,0.377-0.528,0.637-0.758,0.779c-0.23,0.141-0.518,0.213-0.861,0.213c-0.276,0-0.531-0.055-0.77-0.162
				c-0.236-0.107-0.429-0.256-0.573-0.448c-0.276-0.347-0.413-0.923-0.413-1.728v-6.703h2.925v-0.438h-2.925v-2.995H91.175z"/>
		</defs>
		<clipPath id="SVGID_26_">
			<use xlink:href="#SVGID_25_"  overflow="visible"/>
		</clipPath>
		
			<linearGradient id="SVGID_27_" gradientUnits="userSpaceOnUse" x1="-4.8032" y1="850.1333" x2="-3.8032" y2="850.1333" gradientTransform="matrix(82.2784 62.3406 62.3406 -82.2784 -52560.9883 70334.0391)">
			<stop  offset="0" style="stop-color:#FAE7C6"/>
			<stop  offset="0.0359" style="stop-color:#FAE7C6"/>
			<stop  offset="0.0828" style="stop-color:#ECD8B8"/>
			<stop  offset="0.2469" style="stop-color:#BDA78B"/>
			<stop  offset="0.3282" style="stop-color:#AB947A"/>
			<stop  offset="0.5179" style="stop-color:#887462"/>
			<stop  offset="0.758" style="stop-color:#A89178"/>
			<stop  offset="0.7795" style="stop-color:#AB947A"/>
			<stop  offset="0.8446" style="stop-color:#BBA892"/>
			<stop  offset="0.9818" style="stop-color:#E4DCD0"/>
			<stop  offset="1" style="stop-color:#EAE3D9"/>
		</linearGradient>
		<polygon clip-path="url(#SVGID_26_)" fill="url(#SVGID_27_)" points="91.003,115.453 101.406,123.334 92.771,134.733 
			82.367,126.85 		"/>
	</g>
	<g>
		<defs>
			<path id="SVGID_28_" d="M101.223,121.591v0.253c0.583,0.1,0.982,0.254,1.197,0.46c0.177,0.169,0.293,0.373,0.352,0.61
				c0.057,0.238,0.086,0.617,0.086,1.139l0.012,0.852v2.254c0,0.897-0.037,1.543-0.11,1.933c-0.071,0.392-0.219,0.737-0.441,1.036
				c-0.214,0.292-0.509,0.521-0.884,0.689c-0.376,0.17-0.778,0.254-1.207,0.254c-0.391,0-0.743-0.074-1.058-0.226
				c-0.313-0.149-0.555-0.354-0.724-0.614c-0.153-0.255-0.259-0.578-0.315-0.975c-0.058-0.395-0.087-1.004-0.087-1.825v-5.84h-3.387
				v0.253c0.576,0.1,0.976,0.254,1.198,0.46c0.17,0.169,0.285,0.373,0.346,0.61c0.061,0.238,0.093,0.617,0.093,1.139l0.011,0.875
				v4.003c0,0.843,0.284,1.496,0.853,1.956c0.583,0.469,1.354,0.702,2.315,0.702c1.313,0,2.448-0.479,3.409-1.438
				c0,0.491,0.05,0.971,0.149,1.438l3.167-0.427v-0.242c-0.345-0.023-0.61-0.082-0.795-0.178c-0.183-0.096-0.345-0.252-0.483-0.467
				c-0.123-0.199-0.206-0.457-0.247-0.775c-0.043-0.318-0.063-0.872-0.063-1.663v-6.246H101.223z"/>
		</defs>
		<clipPath id="SVGID_29_">
			<use xlink:href="#SVGID_28_"  overflow="visible"/>
		</clipPath>
		
			<linearGradient id="SVGID_30_" gradientUnits="userSpaceOnUse" x1="-4.8052" y1="850.1235" x2="-3.8019" y2="850.1235" gradientTransform="matrix(82.2784 62.3406 62.3406 -82.2784 -52557.9883 70330.1641)">
			<stop  offset="0" style="stop-color:#FAE7C6"/>
			<stop  offset="0.0359" style="stop-color:#FAE7C6"/>
			<stop  offset="0.0828" style="stop-color:#ECD8B8"/>
			<stop  offset="0.2469" style="stop-color:#BDA78B"/>
			<stop  offset="0.3282" style="stop-color:#AB947A"/>
			<stop  offset="0.5179" style="stop-color:#887462"/>
			<stop  offset="0.758" style="stop-color:#A89178"/>
			<stop  offset="0.7795" style="stop-color:#AB947A"/>
			<stop  offset="0.8446" style="stop-color:#BBA892"/>
			<stop  offset="0.9818" style="stop-color:#E4DCD0"/>
			<stop  offset="1" style="stop-color:#EAE3D9"/>
		</linearGradient>
		<polygon clip-path="url(#SVGID_29_)" fill="url(#SVGID_30_)" points="98.865,116.036 111.01,125.238 101.988,137.145 
			89.844,127.943 		"/>
	</g>
	<g>
		<defs>
			<path id="SVGID_31_" d="M110.271,130.069c-0.33-0.453-0.589-0.998-0.781-1.629c-0.19-0.635-0.286-1.281-0.286-1.943
				c0-0.674,0.102-1.332,0.303-1.969c0.204-0.637,0.485-1.186,0.845-1.646c0.596-0.768,1.304-1.152,2.122-1.152
				c0.366,0,0.725,0.088,1.072,0.266c0.349,0.177,0.625,0.41,0.831,0.703c0.238,0.338,0.402,0.773,0.493,1.307
				c0.092,0.533,0.139,1.334,0.139,2.402c0,1.021-0.047,1.802-0.139,2.342c-0.091,0.543-0.252,0.996-0.48,1.365
				c-0.222,0.354-0.513,0.631-0.872,0.83s-0.738,0.299-1.137,0.299C111.548,131.243,110.845,130.852,110.271,130.069
				 M113.212,115.706v0.277c0.642,0,1.102,0.182,1.379,0.551c0.279,0.367,0.418,0.968,0.418,1.801v4.259
				c-0.553-0.444-1.034-0.752-1.449-0.921c-0.414-0.169-0.912-0.253-1.495-0.253c-1.203,0-2.243,0.368-3.116,1.104
				c-0.552,0.477-0.981,1.074-1.288,1.791c-0.307,0.719-0.46,1.5-0.46,2.344c0,0.8,0.141,1.535,0.425,2.205
				c0.284,0.674,0.69,1.231,1.22,1.676c0.827,0.699,1.824,1.05,2.99,1.05c0.575,0,1.114-0.081,1.616-0.243
				c0.501-0.161,1.036-0.426,1.604-0.794c0,0.431,0.039,0.838,0.114,1.22l3.364-0.494v-0.289c-0.639,0-1.095-0.183-1.371-0.551
				c-0.277-0.369-0.415-0.986-0.415-1.852v-13.33L113.212,115.706z"/>
		</defs>
		<clipPath id="SVGID_32_">
			<use xlink:href="#SVGID_31_"  overflow="visible"/>
		</clipPath>
		
			<linearGradient id="SVGID_33_" gradientUnits="userSpaceOnUse" x1="-4.8032" y1="850.1255" x2="-3.8032" y2="850.1255" gradientTransform="matrix(82.2783 62.3406 62.3406 -82.2783 -52552.0547 70322.2422)">
			<stop  offset="0" style="stop-color:#FAE7C6"/>
			<stop  offset="0.0359" style="stop-color:#FAE7C6"/>
			<stop  offset="0.0828" style="stop-color:#ECD8B8"/>
			<stop  offset="0.2469" style="stop-color:#BDA78B"/>
			<stop  offset="0.3282" style="stop-color:#AB947A"/>
			<stop  offset="0.5179" style="stop-color:#887462"/>
			<stop  offset="0.758" style="stop-color:#A89178"/>
			<stop  offset="0.7795" style="stop-color:#AB947A"/>
			<stop  offset="0.8446" style="stop-color:#BBA892"/>
			<stop  offset="0.9818" style="stop-color:#E4DCD0"/>
			<stop  offset="1" style="stop-color:#EAE3D9"/>
		</linearGradient>
		<polygon clip-path="url(#SVGID_32_)" fill="url(#SVGID_33_)" points="111.334,109.801 126.484,121.28 114.4,137.228 
			99.25,125.749 		"/>
	</g>
	<g>
		<defs>
			<path id="SVGID_34_" d="M119.293,121.833v0.241c0.347,0.023,0.61,0.082,0.795,0.178c0.185,0.095,0.343,0.25,0.473,0.464
				c0.131,0.198,0.214,0.457,0.253,0.774c0.039,0.316,0.058,0.869,0.058,1.656v2.829c0,0.673-0.017,1.187-0.052,1.542
				s-0.094,0.621-0.179,0.797c-0.122,0.268-0.283,0.457-0.483,0.567s-0.53,0.196-0.991,0.257v0.242h5.092v-0.242
				c-0.576-0.107-0.973-0.264-1.187-0.47c-0.177-0.16-0.296-0.362-0.357-0.603c-0.062-0.242-0.092-0.621-0.092-1.143l-0.012-0.872
				v-6.633L119.293,121.833z M120.954,115.55c-0.201,0.196-0.302,0.437-0.302,0.72c0,0.293,0.099,0.533,0.295,0.725
				c0.197,0.193,0.447,0.289,0.747,0.289c0.302,0,0.551-0.096,0.747-0.289c0.197-0.191,0.296-0.432,0.296-0.725
				c0-0.283-0.1-0.523-0.301-0.72s-0.448-0.294-0.742-0.294C121.401,115.256,121.154,115.354,120.954,115.55"/>
		</defs>
		<clipPath id="SVGID_35_">
			<use xlink:href="#SVGID_34_"  overflow="visible"/>
		</clipPath>
		
			<linearGradient id="SVGID_36_" gradientUnits="userSpaceOnUse" x1="-4.8062" y1="850.1362" x2="-3.8025" y2="850.1362" gradientTransform="matrix(82.2784 62.3406 62.3406 -82.2784 -52549.4883 70318.8203)">
			<stop  offset="0" style="stop-color:#FAE7C6"/>
			<stop  offset="0.0359" style="stop-color:#FAE7C6"/>
			<stop  offset="0.0828" style="stop-color:#ECD8B8"/>
			<stop  offset="0.2469" style="stop-color:#BDA78B"/>
			<stop  offset="0.3282" style="stop-color:#AB947A"/>
			<stop  offset="0.5179" style="stop-color:#887462"/>
			<stop  offset="0.758" style="stop-color:#A89178"/>
			<stop  offset="0.7795" style="stop-color:#AB947A"/>
			<stop  offset="0.8446" style="stop-color:#BBA892"/>
			<stop  offset="0.9818" style="stop-color:#E4DCD0"/>
			<stop  offset="1" style="stop-color:#EAE3D9"/>
		</linearGradient>
		<polygon clip-path="url(#SVGID_35_)" fill="url(#SVGID_36_)" points="121.023,112.805 132.02,121.137 122.401,133.833 
			111.404,125.5 		"/>
	</g>
	<g>
		<defs>
			<path id="SVGID_37_" d="M128.266,129.782c-0.599-0.928-0.898-2.059-0.898-3.394c0-1.319,0.319-2.435,0.956-3.349
				c0.63-0.911,1.379-1.367,2.246-1.367c0.914,0,1.685,0.434,2.314,1.299c0.33,0.461,0.594,1.012,0.789,1.652
				c0.196,0.64,0.294,1.273,0.294,1.902c0,0.606-0.092,1.233-0.276,1.881c-0.185,0.648-0.425,1.188-0.726,1.617
				c-0.283,0.414-0.622,0.736-1.013,0.967c-0.393,0.229-0.795,0.345-1.21,0.345C129.767,131.335,128.941,130.817,128.266,129.782
				 M126.653,123.192c-0.921,0.976-1.382,2.086-1.382,3.33c0,0.598,0.112,1.182,0.34,1.75c0.226,0.568,0.551,1.082,0.973,1.543
				c1.083,1.182,2.445,1.774,4.089,1.774s3.002-0.593,4.077-1.774c0.875-0.959,1.313-2.054,1.313-3.283
				c0-1.244-0.461-2.356-1.382-3.34c-1.114-1.182-2.449-1.772-4.009-1.772C129.114,121.419,127.774,122.01,126.653,123.192"/>
		</defs>
		<clipPath id="SVGID_38_">
			<use xlink:href="#SVGID_37_"  overflow="visible"/>
		</clipPath>
		
			<linearGradient id="SVGID_39_" gradientUnits="userSpaceOnUse" x1="-4.7998" y1="850.1304" x2="-3.8032" y2="850.1304" gradientTransform="matrix(82.2783 62.3406 62.3406 -82.2783 -52547.3125 70315.9609)">
			<stop  offset="0" style="stop-color:#FAE7C6"/>
			<stop  offset="0.0359" style="stop-color:#FAE7C6"/>
			<stop  offset="0.0828" style="stop-color:#ECD8B8"/>
			<stop  offset="0.2469" style="stop-color:#BDA78B"/>
			<stop  offset="0.3282" style="stop-color:#AB947A"/>
			<stop  offset="0.5179" style="stop-color:#887462"/>
			<stop  offset="0.758" style="stop-color:#A89178"/>
			<stop  offset="0.7795" style="stop-color:#AB947A"/>
			<stop  offset="0.8446" style="stop-color:#BBA892"/>
			<stop  offset="0.9818" style="stop-color:#E4DCD0"/>
			<stop  offset="1" style="stop-color:#EAE3D9"/>
		</linearGradient>
		<polygon clip-path="url(#SVGID_38_)" fill="url(#SVGID_39_)" points="129.207,116.225 140.958,125.128 132.127,136.784 
			120.376,127.88 		"/>
	</g>
</g>
</svg>
